<svg xmlns="http://www.w3.org/2000/svg" viewBox="0 0 1200 600">
  <defs>
    <linearGradient id="g" x1="0" y1="0" x2="0" y2="1">
      <stop offset="0" stop-color="#e0f2fe"/>
      <stop offset="1" stop-color="#ffffff"/>
    </linearGradient>
  </defs>
  <rect width="1200" height="600" fill="url(#g)"/>
  <circle cx="980" cy="120" r="70" fill="#93c5fd"/>
  <rect x="0" y="420" width="1200" height="180" fill="#e2e8f0"/>
  <g fill="#0f172a" opacity="0.9">
    <rect x="120" y="260" width="140" height="220" rx="18"/>
    <rect x="290" y="220" width="190" height="260" rx="18"/>
    <rect x="520" y="170" width="150" height="310" rx="18"/>
    <rect x="700" y="240" width="260" height="240" rx="18"/>
  </g>
  <g fill="#ffffff" opacity="0.25">
    <rect x="150" y="300" width="20" height="40" rx="6"/>
    <rect x="185" y="300" width="20" height="40" rx="6"/>
    <rect x="325" y="260" width="22" height="46" rx="6"/>
    <rect x="360" y="260" width="22" height="46" rx="6"/>
    <rect x="555" y="210" width="22" height="46" rx="6"/>
    <rect x="590" y="210" width="22" height="46" rx="6"/>
    <rect x="745" y="280" width="22" height="46" rx="6"/>
    <rect x="780" y="280" width="22" height="46" rx="6"/>
  </g>
  <text x="70" y="110" font-family="ui-sans-serif, system-ui" font-size="44" fill="#0f172a" opacity="0.9">Tokyo</text>
  <text x="70" y="160" font-family="ui-sans-serif, system-ui" font-size="22" fill="#334155">Skytree · Shibuya · Asakusa</text>
</svg>


